<svg width="84" height="60" viewBox="0 0 84 60" fill="none" xmlns="http://www.w3.org/2000/svg">
<g clip-path="url(#clip0_17_24)">
<path d="M82.1448 9.35833C81.663 7.54952 80.7232 5.90048 79.4189 4.57543C78.1146 3.25037 76.4914 2.29554 74.7108 1.806C68.1923 0 41.9574 0 41.9574 0C41.9574 0 15.7212 0.0546665 9.20266 1.86067C7.42209 2.35023 5.79883 3.30512 4.49453 4.63023C3.19024 5.95535 2.25042 7.60446 1.76866 9.41333C-0.203046 21.1793 -0.967906 39.108 1.8228 50.4033C2.30461 52.2121 3.24445 53.8612 4.54874 55.1862C5.85304 56.5113 7.47627 57.4661 9.2568 57.9557C15.7753 59.7617 42.0109 59.7617 42.0109 59.7617C42.0109 59.7617 68.2461 59.7617 74.7643 57.9557C76.5449 57.4662 78.1682 56.5114 79.4726 55.1863C80.7769 53.8612 81.7168 52.2122 82.1987 50.4033C84.2783 38.6207 84.9191 20.703 82.1448 9.35833Z" fill="#FF0000"/>
<path d="M33.6069 42.6867L55.3708 29.8807L33.6069 17.0747V42.6867Z" fill="white"/>
</g>
<defs>
<clipPath id="clip0_17_24">
<rect width="84" height="60" fill="white"/>
</clipPath>
</defs>
</svg>
